<svg width="37" height="33" viewBox="0 0 37 33" fill="none" xmlns="http://www.w3.org/2000/svg">
<path fill-rule="evenodd" clip-rule="evenodd" d="M20.2918 5.93959C20.1148 5.76187 19.818 5.29303 19.8204 4.1481C19.8204 4.1264 19.8192 4.10492 19.8166 4.08361V1.51613V1.51613C19.8166 1.23132 19.5858 1 19.3009 1V1H12.6732V1C12.3884 1 12.1576 1.23132 12.1576 1.51613V1.51613V4.15473C12.1562 4.61739 12.0845 6.13188 11.2171 6.13188C10.9663 6.13188 10.4248 6.01077 9.61503 5.19992L7.75543 3.33978V3.33978C7.55411 3.13839 7.22754 3.13851 7.02627 3.33995V3.33995L2.33894 8.03121V8.03121C2.13761 8.23271 2.13753 8.55921 2.33877 8.76081V8.76081L4.19719 10.6225C4.92849 11.354 5.25869 12.0473 5.08078 12.4776C4.9027 12.9077 4.17938 13.1648 3.14574 13.1648H0.515696V13.1648C0.230885 13.1648 0 13.3961 0 13.6809V13.6809V20.3171V20.3171C0 20.6019 0.230885 20.8333 0.515696 20.8333V20.8333H3.14557C4.17899 20.8333 4.90237 21.0901 5.08044 21.5203C5.25869 21.9507 4.92849 22.6449 4.19725 23.377L2.339 25.2369V25.2369C2.13759 25.4385 2.13762 25.7652 2.339 25.9668V25.9668L7.02632 30.66V30.66C7.2277 30.8616 7.55449 30.8616 7.75588 30.66V30.66L9.61514 28.7983C10.4245 27.9887 10.9661 27.8677 11.2167 27.8677C12.0846 27.8677 12.1563 29.3811 12.1577 29.845V32.4839V32.4839C12.1577 32.7687 12.3885 33 12.6734 33V33H19.3012V33C19.586 33 19.8169 32.7687 19.8169 32.4839V32.4839V29.9166C19.8195 29.8954 19.8207 29.8743 19.8207 29.8528C19.8183 28.7074 20.115 28.2385 20.2921 28.0609C20.4229 27.9297 20.5702 27.8686 20.7555 27.8686C21.0067 27.8686 21.549 27.9894 22.359 28.7985L24.2167 30.6597V30.6597C24.4179 30.8614 24.7447 30.8614 24.946 30.6598V30.6598L29.6353 25.9668V25.9668C29.8367 25.7652 29.8366 25.4383 29.6351 25.2367V25.2367L27.775 23.3767C27.0447 22.6445 26.7149 21.9502 26.8931 21.5201L21.5899 21.5517C20.2651 23.1823 18.2453 24.2258 15.9866 24.2258C12.0055 24.2258 8.76682 20.9844 8.76682 17C8.76682 13.0156 12.0055 9.77418 15.9866 9.77418C16.5928 9.77418 17.1818 9.84935 17.7448 9.99086L20.2918 5.93959Z" fill="#C73E1D"/>
<mask id="path-2-inside-1_1228_38" fill="white">
<path fill-rule="evenodd" clip-rule="evenodd" d="M14.2426 16.8516L13.2759 18.526L14.8983 21.3362H16.8953L14.3243 16.883C14.2968 16.8731 14.2696 16.8626 14.2426 16.8516ZM15.5885 17L18.0919 21.3362H21.0248L18.5213 17H15.5885ZM17.1895 13L16.828 12.3738L16.4665 13H16.4664L23.9719 0L18.5936 9.31581L20.7207 13H17.1895ZM19.4989 17L22.0024 21.3362H25.5335L23.0301 17H19.4989ZM24.2267 17L26.7302 21.3362H30.32L27.8165 17H24.2267ZM26.4847 13L21.4756 4.32397L23.9719 0L36.2906 21.3362H31.2976L28.7941 17H29C30.1046 17 31 16.1046 31 15C31 13.8954 30.1046 13 29 13H26.4847ZM25.5071 13H21.9173L19.1919 8.2795L20.9868 5.17061L25.5071 13Z"/>
</mask>
<path fill-rule="evenodd" clip-rule="evenodd" d="M14.2426 16.8516L13.2759 18.526L14.8983 21.3362H16.8953L14.3243 16.883C14.2968 16.8731 14.2696 16.8626 14.2426 16.8516ZM15.5885 17L18.0919 21.3362H21.0248L18.5213 17H15.5885ZM17.1895 13L16.828 12.3738L16.4665 13H16.4664L23.9719 0L18.5936 9.31581L20.7207 13H17.1895ZM19.4989 17L22.0024 21.3362H25.5335L23.0301 17H19.4989ZM24.2267 17L26.7302 21.3362H30.32L27.8165 17H24.2267ZM26.4847 13L21.4756 4.32397L23.9719 0L36.2906 21.3362H31.2976L28.7941 17H29C30.1046 17 31 16.1046 31 15C31 13.8954 30.1046 13 29 13H26.4847ZM25.5071 13H21.9173L19.1919 8.2795L20.9868 5.17061L25.5071 13Z" fill="white"/>
<path d="M14.2426 16.8516L14.4321 16.3889L14.028 16.2234L13.8096 16.6016L14.2426 16.8516ZM13.2759 18.526L12.8429 18.276L12.6985 18.526L12.8429 18.776L13.2759 18.526ZM14.8983 21.3362L14.4653 21.5862L14.6096 21.8362H14.8983V21.3362ZM16.8953 21.3362V21.8362H17.7614L17.3284 21.0862L16.8953 21.3362ZM14.3243 16.883L14.7573 16.633L14.6657 16.4743L14.4932 16.4124L14.3243 16.883ZM15.5885 17V16.5H14.7224L15.1554 17.25L15.5885 17ZM18.0919 21.3362L17.6589 21.5862L17.8033 21.8362H18.0919V21.3362ZM21.0248 21.3362V21.8362H21.8908L21.4578 21.0862L21.0248 21.3362ZM18.5213 17L18.9543 16.75L18.81 16.5H18.5213V17ZM16.828 12.3738L17.261 12.1238L16.828 11.3738L16.395 12.1238L16.828 12.3738ZM17.1895 13L16.7565 13.25L16.9009 13.5H17.1895V13ZM16.4665 13V13.5H16.7551L16.8995 13.25L16.4665 13ZM16.4664 13L16.0334 12.75L15.6004 13.5H16.4664V13ZM23.9719 0L24.4049 -0.250003L23.9719 -0.999994L23.5389 -0.25L23.9719 0ZM18.5936 9.31581L18.1606 9.06581L18.0162 9.31581L18.1606 9.56581L18.5936 9.31581ZM20.7207 13V13.5H21.5867L21.1537 12.75L20.7207 13ZM19.4989 17V16.5H18.6329L19.0659 17.25L19.4989 17ZM22.0024 21.3362L21.5694 21.5862L21.7137 21.8362H22.0024V21.3362ZM25.5335 21.3362V21.8362H26.3996L25.9666 21.0862L25.5335 21.3362ZM23.0301 17L23.4631 16.75L23.3187 16.5H23.0301V17ZM24.2267 17V16.5H23.3607L23.7937 17.25L24.2267 17ZM26.7302 21.3362L26.2972 21.5862L26.4415 21.8362H26.7302V21.3362ZM30.32 21.3362V21.8362H31.186L30.753 21.0862L30.32 21.3362ZM27.8165 17L28.2495 16.75L28.1052 16.5H27.8165V17ZM21.4756 4.32397L21.0426 4.07398L20.8983 4.32398L21.0426 4.57397L21.4756 4.32397ZM26.4847 13L26.0517 13.25L26.1961 13.5H26.4847V13ZM36.2906 21.3362V21.8362H37.1566L36.7236 21.0862L36.2906 21.3362ZM31.2976 21.3362L30.8646 21.5862L31.0089 21.8362H31.2976V21.3362ZM28.7941 17V16.5H27.9281L28.3611 17.25L28.7941 17ZM21.9173 13L21.4843 13.25L21.6286 13.5H21.9173V13ZM25.5071 13V13.5H26.3732L25.9401 12.75L25.5071 13ZM19.1919 8.2795L18.7589 8.0295L18.6146 8.2795L18.7589 8.5295L19.1919 8.2795ZM20.9868 5.17061L21.4198 4.92061L20.9868 4.17061L20.5538 4.92061L20.9868 5.17061ZM13.8096 16.6016L12.8429 18.276L13.7089 18.776L14.6757 17.1016L13.8096 16.6016ZM12.8429 18.776L14.4653 21.5862L15.3313 21.0862L13.7089 18.276L12.8429 18.776ZM14.8983 21.8362H16.8953V20.8362H14.8983V21.8362ZM17.3284 21.0862L14.7573 16.633L13.8913 17.133L16.4623 21.5862L17.3284 21.0862ZM14.4932 16.4124C14.4726 16.405 14.4523 16.3972 14.4321 16.3889L14.0532 17.3143C14.0869 17.3281 14.1209 17.3412 14.1554 17.3536L14.4932 16.4124ZM15.1554 17.25L17.6589 21.5862L18.525 21.0862L16.0215 16.75L15.1554 17.25ZM18.0919 21.8362H21.0248V20.8362H18.0919V21.8362ZM21.4578 21.0862L18.9543 16.75L18.0883 17.25L20.5918 21.5862L21.4578 21.0862ZM18.5213 16.5H15.5885V17.5H18.5213V16.5ZM16.395 12.6238L16.7565 13.25L17.6225 12.75L17.261 12.1238L16.395 12.6238ZM16.8995 13.25L17.261 12.6238L16.395 12.1238L16.0335 12.75L16.8995 13.25ZM16.4664 13.5H16.4665V12.5H16.4664V13.5ZM23.5389 -0.25L16.0334 12.75L16.8994 13.25L24.4049 0.25L23.5389 -0.25ZM19.0266 9.5658L24.405 0.249995L23.5389 -0.249995L18.1606 9.06581L19.0266 9.5658ZM21.1537 12.75L19.0266 9.06581L18.1606 9.56581L20.2876 13.25L21.1537 12.75ZM17.1895 13.5H20.7207V12.5H17.1895V13.5ZM19.0659 17.25L21.5694 21.5862L22.4354 21.0862L19.9319 16.75L19.0659 17.25ZM22.0024 21.8362H25.5335V20.8362H22.0024V21.8362ZM25.9666 21.0862L23.4631 16.75L22.597 17.25L25.1005 21.5862L25.9666 21.0862ZM23.0301 16.5H19.4989V17.5H23.0301V16.5ZM23.7937 17.25L26.2972 21.5862L27.1632 21.0862L24.6597 16.75L23.7937 17.25ZM26.7302 21.8362H30.32V20.8362H26.7302V21.8362ZM30.753 21.0862L28.2495 16.75L27.3835 17.25L29.887 21.5862L30.753 21.0862ZM27.8165 16.5H24.2267V17.5H27.8165V16.5ZM21.0426 4.57397L26.0517 13.25L26.9177 12.75L21.9086 4.07397L21.0426 4.57397ZM23.5389 -0.24999L21.0426 4.07398L21.9086 4.57396L24.405 0.24999L23.5389 -0.24999ZM36.7236 21.0862L24.4049 -0.250003L23.5389 0.250003L35.8575 21.5862L36.7236 21.0862ZM31.2976 21.8362H36.2906V20.8362H31.2976V21.8362ZM28.3611 17.25L30.8646 21.5862L31.7306 21.0862L29.2271 16.75L28.3611 17.25ZM29 16.5H28.7941V17.5H29V16.5ZM30.5 15C30.5 15.8284 29.8284 16.5 29 16.5V17.5C30.3807 17.5 31.5 16.3807 31.5 15H30.5ZM29 13.5C29.8284 13.5 30.5 14.1716 30.5 15H31.5C31.5 13.6193 30.3807 12.5 29 12.5V13.5ZM26.4847 13.5H29V12.5H26.4847V13.5ZM21.9173 13.5H25.5071V12.5H21.9173V13.5ZM18.7589 8.5295L21.4843 13.25L22.3503 12.75L19.6249 8.0295L18.7589 8.5295ZM20.5538 4.92061L18.7589 8.0295L19.6249 8.5295L21.4198 5.42061L20.5538 4.92061ZM25.9401 12.75L21.4198 4.92061L20.5538 5.42061L25.0741 13.25L25.9401 12.75Z" fill="black" mask="url(#path-2-inside-1_1228_38)"/>
</svg>
